<svg width="150" height="150" viewBox="0 0 150 150" fill="none" xmlns="http://www.w3.org/2000/svg">
<circle cx="75" cy="75" r="75" fill="white"/>
<mask id="path-2-inside-1_523_3" fill="white">
<path fill-rule="evenodd" clip-rule="evenodd" d="M148.636 89.3121C149.531 84.6792 150 79.8943 150 75C150 33.5786 116.421 0 75 0C57.55 0 41.492 5.95941 28.75 15.954V93.75H58.75V105H17.5L16.2831 28.3336C6.09034 41.1413 0 57.3594 0 75C0 116.421 33.5786 150 75 150C105.123 150 131.099 132.241 143.028 106.621C142.702 107.164 142.5 107.5 142.5 107.5V81.25L131.25 97.5L120 82.5V107.5H112.5V70H120L131.25 87.5L140 70H147.5L148.636 89.3121ZM61.25 116.25L52.5 121.25C52.5 121.25 64.7048 132.527 73.75 135C90.2239 139.504 105 121.25 106.25 112.5C107.5 103.75 108.75 92.5 100 83.75C93.0964 76.8464 76.25 81.25 76.25 81.25L81.25 58.75H108.75V47.5H73.75L61.25 96.25L72.5 95C72.5 95 79.0436 87.6647 85 87.5C93.688 87.2597 96.8807 93.8307 97.5 102.5C98.2886 113.539 89.813 125.943 78.75 126.25C70.8818 126.468 61.25 116.25 61.25 116.25Z"/>
</mask>
<path fill-rule="evenodd" clip-rule="evenodd" d="M148.636 89.3121C149.531 84.6792 150 79.8943 150 75C150 33.5786 116.421 0 75 0C57.55 0 41.492 5.95941 28.75 15.954V93.75H58.75V105H17.5L16.2831 28.3336C6.09034 41.1413 0 57.3594 0 75C0 116.421 33.5786 150 75 150C105.123 150 131.099 132.241 143.028 106.621C142.702 107.164 142.5 107.5 142.5 107.5V81.25L131.25 97.5L120 82.5V107.5H112.5V70H120L131.25 87.5L140 70H147.5L148.636 89.3121ZM61.25 116.25L52.5 121.25C52.5 121.25 64.7048 132.527 73.75 135C90.2239 139.504 105 121.25 106.25 112.5C107.5 103.75 108.75 92.5 100 83.75C93.0964 76.8464 76.25 81.25 76.25 81.25L81.25 58.75H108.75V47.5H73.75L61.25 96.25L72.5 95C72.5 95 79.0436 87.6647 85 87.5C93.688 87.2597 96.8807 93.8307 97.5 102.5C98.2886 113.539 89.813 125.943 78.75 126.25C70.8818 126.468 61.25 116.25 61.25 116.25Z" fill="#3D5293"/>
<path d="M148.636 89.3121L147.638 89.3708L149.618 89.5018L148.636 89.3121ZM28.75 15.954L28.1328 15.1672L27.75 15.4675V15.954H28.75ZM28.75 93.75H27.75V94.75H28.75V93.75ZM58.75 93.75H59.75V92.75H58.75V93.75ZM58.75 105V106H59.75V105H58.75ZM17.5 105L16.5001 105.016L16.5157 106H17.5V105ZM16.2831 28.3336L17.2829 28.3177L17.2386 25.5269L15.5006 27.7108L16.2831 28.3336ZM143.028 106.621L143.934 107.043L142.171 106.106L143.028 106.621ZM142.5 107.5H141.5V111.106L143.357 108.015L142.5 107.5ZM142.5 81.25H143.5V78.0487L141.678 80.6808L142.5 81.25ZM131.25 97.5L130.45 98.1L131.282 99.2099L132.072 98.0692L131.25 97.5ZM120 82.5L120.8 81.9L119 79.5V82.5H120ZM120 107.5V108.5H121V107.5H120ZM112.5 107.5H111.5V108.5H112.5V107.5ZM112.5 70V69H111.5V70H112.5ZM120 70L120.841 69.4592L120.546 69H120V70ZM131.25 87.5L130.409 88.0408L131.359 89.5185L132.144 87.9472L131.25 87.5ZM140 70V69H139.382L139.106 69.5528L140 70ZM147.5 70L148.498 69.9413L148.443 69H147.5V70ZM52.5 121.25L52.0039 120.382L50.8193 121.059L51.8214 121.984L52.5 121.25ZM61.25 116.25L61.9777 115.564L61.4376 114.991L60.7539 115.382L61.25 116.25ZM73.75 135L74.0137 134.035L73.75 135ZM100 83.75L100.707 83.0429L100 83.75ZM76.25 81.25L75.2738 81.0331L74.9186 82.6316L76.5029 82.2175L76.25 81.25ZM81.25 58.75V57.75H80.4478L80.2738 58.5331L81.25 58.75ZM108.75 58.75V59.75H109.75V58.75H108.75ZM108.75 47.5H109.75V46.5H108.75V47.5ZM73.75 47.5V46.5H72.9741L72.7813 47.2516L73.75 47.5ZM61.25 96.25L60.2813 96.0016L59.9218 97.4037L61.3604 97.2439L61.25 96.25ZM72.5 95L72.6104 95.9939L72.9912 95.9516L73.2462 95.6657L72.5 95ZM85 87.5L84.9724 86.5004L85 87.5ZM97.5 102.5L96.5025 102.571L97.5 102.5ZM78.75 126.25L78.7223 125.25L78.75 126.25ZM149 75C149 79.8303 148.537 84.5517 147.654 89.1224L149.618 89.5018C150.525 84.8067 151 79.9584 151 75H149ZM75 1C115.869 1 149 34.1309 149 75H151C151 33.0264 116.974 -1 75 -1V1ZM29.3672 16.7409C41.9393 6.87943 57.7817 1 75 1V-1C57.3184 -1 41.0446 5.0394 28.1328 15.1672L29.3672 16.7409ZM29.75 93.75V15.954H27.75V93.75H29.75ZM58.75 92.75H28.75V94.75H58.75V92.75ZM59.75 105V93.75H57.75V105H59.75ZM17.5 106H58.75V104H17.5V106ZM15.2832 28.3494L16.5001 105.016L18.4999 104.984L17.2829 28.3177L15.2832 28.3494ZM1 75C1 57.5936 7.00858 41.5933 17.0655 28.9563L15.5006 27.7108C5.17211 40.6892 -1 57.1252 -1 75H1ZM75 149C34.1309 149 1 115.869 1 75H-1C-1 116.974 33.0264 151 75 151V149ZM142.121 106.199C130.35 131.479 104.72 149 75 149V151C105.527 151 131.847 133.002 143.934 107.043L142.121 106.199ZM142.171 106.106C142.008 106.378 141.876 106.598 141.784 106.749C141.739 106.825 141.703 106.884 141.679 106.924C141.667 106.944 141.658 106.959 141.652 106.969C141.649 106.975 141.647 106.978 141.645 106.981C141.644 106.982 141.644 106.983 141.643 106.984C141.643 106.984 141.643 106.985 141.643 106.985C141.643 106.985 141.643 106.985 141.643 106.985C141.643 106.985 141.643 106.985 141.643 106.985C141.643 106.985 141.643 106.985 141.643 106.985C141.643 106.985 141.643 106.985 142.5 107.5C143.357 108.015 143.357 108.015 143.357 108.015C143.357 108.015 143.357 108.015 143.357 108.015C143.357 108.015 143.357 108.015 143.357 108.015C143.357 108.015 143.357 108.015 143.357 108.015C143.357 108.015 143.358 108.014 143.358 108.014C143.358 108.013 143.359 108.012 143.36 108.011C143.361 108.009 143.363 108.005 143.366 108C143.373 107.989 143.382 107.974 143.394 107.954C143.418 107.914 143.453 107.855 143.499 107.779C143.59 107.627 143.722 107.408 143.885 107.136L142.171 106.106ZM143.5 107.5V81.25H141.5V107.5H143.5ZM141.678 80.6808L130.428 96.9308L132.072 98.0692L143.322 81.8192L141.678 80.6808ZM132.05 96.9L120.8 81.9L119.2 83.1L130.45 98.1L132.05 96.9ZM119 82.5V107.5H121V82.5H119ZM120 106.5H112.5V108.5H120V106.5ZM113.5 107.5V70H111.5V107.5H113.5ZM112.5 71H120V69H112.5V71ZM119.159 70.5408L130.409 88.0408L132.091 86.9592L120.841 69.4592L119.159 70.5408ZM132.144 87.9472L140.894 70.4472L139.106 69.5528L130.356 87.0528L132.144 87.9472ZM140 71H147.5V69H140V71ZM146.502 70.0587L147.638 89.3708L149.634 89.2534L148.498 69.9413L146.502 70.0587ZM52.9961 122.118L61.7461 117.118L60.7539 115.382L52.0039 120.382L52.9961 122.118ZM74.0137 134.035C69.6886 132.853 64.5066 129.52 60.3321 126.397C58.2622 124.848 56.4709 123.376 55.1971 122.29C54.5605 121.747 54.054 121.302 53.7075 120.993C53.5342 120.838 53.401 120.718 53.3116 120.637C53.2669 120.596 53.2332 120.566 53.2109 120.545C53.1997 120.535 53.1914 120.527 53.186 120.522C53.1833 120.52 53.1814 120.518 53.1801 120.517C53.1795 120.516 53.1791 120.516 53.1788 120.516C53.1787 120.516 53.1787 120.516 53.1786 120.515C53.1786 120.515 53.1786 120.516 52.5 121.25C51.8214 121.984 51.8215 121.985 51.8217 121.985C51.8218 121.985 51.822 121.985 51.8223 121.985C51.8228 121.986 51.8235 121.986 51.8243 121.987C51.8261 121.989 51.8285 121.991 51.8317 121.994C51.8382 122 51.8475 122.009 51.8597 122.02C51.8841 122.042 51.92 122.075 51.9669 122.117C52.0607 122.203 52.1986 122.327 52.3767 122.486C52.733 122.803 53.2506 123.258 53.8996 123.812C55.1969 124.918 57.022 126.418 59.134 127.998C63.3232 131.132 68.7662 134.674 73.4863 135.965L74.0137 134.035ZM105.26 112.359C104.975 114.354 103.894 116.999 102.116 119.805C100.349 122.597 97.9334 125.482 95.056 127.963C89.2828 132.94 81.8059 136.166 74.0137 134.035L73.4863 135.965C82.1679 138.338 90.3161 134.689 96.3619 129.478C99.394 126.864 101.937 123.827 103.806 120.875C105.665 117.939 106.9 115.021 107.24 112.641L105.26 112.359ZM99.2929 84.4571C107.655 92.8188 106.515 103.573 105.26 112.359L107.24 112.641C108.485 103.927 109.845 92.1812 100.707 83.0429L99.2929 84.4571ZM76.25 81.25C76.5029 82.2175 76.5027 82.2175 76.5026 82.2176C76.5027 82.2176 76.5026 82.2176 76.5027 82.2175C76.503 82.2175 76.5034 82.2174 76.5041 82.2172C76.5056 82.2168 76.508 82.2162 76.5114 82.2153C76.5183 82.2135 76.5292 82.2107 76.5439 82.207C76.5734 82.1995 76.6185 82.1883 76.6783 82.1736C76.7979 82.1444 76.9764 82.1018 77.2074 82.0498C77.6693 81.9456 78.3402 81.8035 79.168 81.6539C80.8258 81.3542 83.1018 81.0264 85.583 80.9101C88.069 80.7935 90.7276 80.891 93.1629 81.4238C95.602 81.9575 97.7483 82.9125 99.2929 84.4571L100.707 83.0429C98.7999 81.1357 96.2515 80.0523 93.5904 79.47C90.9253 78.8869 88.0779 78.7909 85.4893 78.9123C82.8959 79.0339 80.5289 79.3755 78.8123 79.6858C77.9528 79.8411 77.2537 79.9891 76.7674 80.0988C76.5241 80.1536 76.334 80.1989 76.2035 80.2308C76.1382 80.2468 76.0878 80.2594 76.0532 80.2682C76.0358 80.2725 76.0224 80.276 76.013 80.2784C76.0084 80.2796 76.0047 80.2805 76.002 80.2812C76.0007 80.2816 75.9996 80.2819 75.9988 80.2821C75.9984 80.2822 75.998 80.2823 75.9978 80.2823C75.9974 80.2824 75.9971 80.2825 76.25 81.25ZM80.2738 58.5331L75.2738 81.0331L77.2262 81.4669L82.2262 58.9669L80.2738 58.5331ZM108.75 57.75H81.25V59.75H108.75V57.75ZM107.75 47.5V58.75H109.75V47.5H107.75ZM73.75 48.5H108.75V46.5H73.75V48.5ZM62.2187 96.4984L74.7187 47.7484L72.7813 47.2516L60.2813 96.0016L62.2187 96.4984ZM72.3896 94.0061L61.1396 95.2561L61.3604 97.2439L72.6104 95.9939L72.3896 94.0061ZM84.9724 86.5004C81.6522 86.5922 78.3073 88.6489 75.9018 90.5229C74.6748 91.4788 73.6423 92.4271 72.9167 93.136C72.5533 93.491 72.2655 93.7873 72.0673 93.9963C71.9681 94.1008 71.8913 94.1836 71.8384 94.2411C71.812 94.2699 71.7916 94.2923 71.7774 94.308C71.7704 94.3158 71.7648 94.322 71.7609 94.3264C71.7589 94.3286 71.7573 94.3304 71.7561 94.3317C71.7555 94.3323 71.755 94.3329 71.7546 94.3333C71.7544 94.3335 71.7542 94.3338 71.7541 94.3339C71.7539 94.3341 71.7538 94.3343 72.5 95C73.2462 95.6657 73.2461 95.6658 73.246 95.6659C73.246 95.6659 73.2459 95.666 73.246 95.666C73.246 95.666 73.2461 95.6659 73.2463 95.6656C73.2467 95.6652 73.2475 95.6643 73.2487 95.663C73.251 95.6603 73.255 95.6559 73.2605 95.6499C73.2714 95.6378 73.2885 95.619 73.3114 95.594C73.3574 95.544 73.4269 95.469 73.5183 95.3727C73.7012 95.1799 73.9711 94.9019 74.3143 94.5666C75.0018 93.8949 75.9775 92.9992 77.1309 92.1007C79.4862 90.2658 82.3914 88.5725 85.0276 88.4996L84.9724 86.5004ZM98.4975 102.429C98.1825 98.0202 97.2076 93.9892 95.0844 91.0706C92.9127 88.0853 89.6173 86.3719 84.9724 86.5004L85.0276 88.4996C89.0708 88.3878 91.7157 89.8398 93.4671 92.2472C95.2671 94.7214 96.1982 98.3105 96.5025 102.571L98.4975 102.429ZM78.7777 127.25C84.6917 127.085 89.8348 123.693 93.3682 119.001C96.9009 114.31 98.9107 108.214 98.4975 102.429L96.5025 102.571C96.8778 107.825 95.0442 113.451 91.7705 117.798C88.4975 122.144 83.8713 125.107 78.7223 125.25L78.7777 127.25ZM61.25 116.25C60.5223 116.936 60.5225 116.936 60.5227 116.936C60.5228 116.936 60.5231 116.937 60.5233 116.937C60.5238 116.937 60.5244 116.938 60.5252 116.939C60.5267 116.941 60.5289 116.943 60.5316 116.946C60.537 116.951 60.5448 116.96 60.5548 116.97C60.5748 116.991 60.604 117.021 60.6419 117.061C60.7177 117.139 60.8286 117.252 60.9718 117.395C61.2581 117.682 61.6738 118.089 62.1967 118.575C63.2413 119.547 64.7194 120.843 66.4519 122.134C68.1815 123.423 70.1841 124.722 72.2772 125.688C74.3626 126.65 76.5991 127.31 78.7777 127.25L78.7223 125.25C76.9668 125.299 75.0487 124.764 73.1152 123.872C71.1894 122.983 69.3088 121.768 67.6469 120.53C65.9879 119.294 64.5664 118.048 63.5591 117.111C63.056 116.643 62.6578 116.253 62.3867 115.982C62.2511 115.846 62.1474 115.74 62.0783 115.669C62.0437 115.633 62.0178 115.606 62.0009 115.589C61.9925 115.58 61.9863 115.573 61.9824 115.569C61.9805 115.567 61.9791 115.566 61.9783 115.565C61.9779 115.564 61.9777 115.564 61.9776 115.564C61.9775 115.564 61.9775 115.564 61.9775 115.564C61.9776 115.564 61.9777 115.564 61.25 116.25Z" fill="#3D5293" mask="url(#path-2-inside-1_523_3)"/>
</svg>
